<?xml version="1.0" standalone="yes"?>
<svg xmlns="http://www.w3.org/2000/svg" width="1080" height="1080">
<path style="fill:#ffffff; opacity:0; stroke:none;" d="M0 0L0 1080L1080 1080L1080 0L0 0z"/>
<path style="fill:#63196d; stroke:none;" d="M310 477L311 474C303.48 469.194 298.642 461.487 292.414 455.247C278.683 441.491 265.187 427.688 249.715 415.862C187.028 367.951 106.999 338 28 338C29.2046 342.136 33.824 342.752 37.412 344.588C47.3847 349.691 58.5865 353.246 68.9398 357.546C107.216 373.445 144.479 395.657 177.745 420.352C204.76 440.406 229.793 465.135 248.389 493.259C262.728 514.945 272.308 539.25 285.134 561.741C296.809 582.213 310.99 601.475 326.667 619.074C355.425 651.361 396.216 671.403 435.866 686.259C453.433 692.841 476.113 702.923 495 703C494.537 696.033 491.343 689.411 493.75 682.286C499.156 666.282 520.048 646.226 538 645.474C554.581 644.78 575.173 662.405 582.04 676.17C586.397 684.903 584.076 693.805 584 703C602.844 702.155 625.725 692.543 643.06 685.546C689.819 666.673 732.375 642.949 764.509 602.588C791.022 569.287 804.258 529.764 826.556 494.259C844.414 465.824 868.75 442.649 894.412 421.375C925.21 395.844 962.995 375.25 999.259 358.625C1010.81 353.328 1022.42 348.191 1034.13 343.245C1038.91 341.228 1045.22 340.81 1048 336C949.82 336 848.26 381.535 782.704 455.296C729.891 514.719 685.514 581.31 612.075 617.218C594.065 626.023 574.771 632.86 555 636.424C550.17 637.295 543.871 639.891 539.05 639.612C522.539 638.656 505.282 632.841 489.91 627.241C439.572 608.9 398.924 577.427 363.3 537.714C350.919 523.913 339.363 509.201 327.413 495C322.292 488.915 317.183 480.668 310 477z"/>
<path style="fill:#730c73; stroke:none;" d="M936 355L937 356L936 355M998.333 358.667L998.667 359.333L998.333 358.667M82 363L82 365L84 365L84 363L82 363M968 374L969 375L968 374M105 375L106 376L105 375M884 377L884 379L886 379L886 377L884 377M879.667 380.333L880.333 380.667L879.667 380.333M197.333 382.667L197.667 383.333L197.333 382.667M124 385L125 386L124 385M868 386L869 387L868 386M130.667 389.333L131.333 389.667L130.667 389.333M208.667 389.333L209.333 389.667L208.667 389.333M862 390L863 391L862 390M939 390L940 391L939 390M139 394L140 395L139 394M840.667 404.333L841.333 404.667L840.667 404.333M178.333 420.667L178.667 421.333L178.333 420.667M183 424L184 425L183 424M263 427L264 428L263 427z"/>
<path style="fill:#bd69a3; stroke:none;" d="M811 555C819.342 553.174 826.187 545.512 833.166 540.822C850.223 529.36 867.236 517.284 885.166 507.17C930.164 481.786 979.604 453.701 1033 456.039C1045.8 456.6 1055.13 464.322 1067 466C1064.83 458.388 1056.62 453.731 1050.59 449.25C1030.32 434.191 1002.88 428 978 428C947.463 428 906.783 433.025 880.729 450.514C858.448 465.47 840.122 494.229 828.522 517.911C823.11 528.962 812.35 542.75 811 555M10 468C22.9698 466.858 34.2617 458.351 48 458.015C94.3964 456.878 140.184 480.623 179.914 502.169C197.24 511.564 215.596 522 231.41 533.757C240.767 540.714 254.593 553.688 266 556C263.991 542.586 253.266 528.84 247.117 516.83C235.848 494.825 219.051 468.671 198.714 453.874C190.979 448.247 180.004 445.361 171.039 442.386C144.368 433.534 115.687 428.477 87.9606 431.872C66.0687 434.553 47.7962 439.444 28.8341 451.143C22.0209 455.346 13.5491 460.563 10 468z"/>
<path style="fill:#730c73; stroke:none;" d="M882.333 430.667L882.667 431.333L882.333 430.667M881 432L882 433L881 432z"/>
<path style="fill:#63196d; stroke:none;" d="M455 507L455 515C452.229 522.346 446.418 536.187 447.833 544C450.062 556.3 466.939 568.525 477 574.258C508.682 592.309 555 593.687 588 578.218C601.537 571.873 621.807 559.978 625.461 544C627.315 535.895 621.221 522.884 619 515L621 515L619 507L670 492C670 512.587 670.094 538.535 663 558L681 558C678.875 551.189 679.873 544.867 678.671 538C676.993 528.41 674.004 518.874 674 509C673.998 503.692 676.458 489.913 672.397 486.005C669.221 482.95 662.142 481.968 658 480.72C646.661 477.304 635.264 473.988 624 470.33C607.758 465.056 591.239 460.623 575 455.33C561.336 450.877 547.548 445.332 533 446.04C525.227 446.419 517.397 450.052 510 452.28C493.974 457.108 477.982 462.009 462 466.974C446.697 471.729 431.232 476.022 416 481C412.505 482.142 402.988 483.215 401.752 487.35C400.384 491.923 410.225 493.429 413 494.33C426.792 498.809 440.866 503.76 455 507z"/>
<path style="fill:#730c73; stroke:none;" d="M210 447L211 448L210 447M211 448L212 449L211 448M285.667 448.333L286.333 448.667L285.667 448.333M522 448L523 449L522 448M552 448L553 449L552 448M512 451L513 452L512 451M509 452L510 453L509 452M858 453L859 454L858 453M499 455L500 456L499 455M578 456L579 457L578 456M591 460L592 461L591 460M473 463L474 464L473 463M300 464L300 466L302 466L302 464L300 464M604 464L605 465L604 464M607 465L608 466L607 465M460 467L461 468L460 467M614 467L615 468L614 467M770.333 469.667L770.667 470.333L770.333 469.667M447 471L448 472L447 471M627 471L628 472L627 471M444 472L445 473L444 472M437 474L438 475L437 474M640 475L641 476L640 475M310.667 476.333L311.333 476.667L310.667 476.333M424 478L425 479L424 478M653 479L654 480L653 479M411 482L412 483L411 482M666 483L667 484L666 483M407 492L408 493L407 492M667 492L668 493L667 492M660 494L661 495L660 494M657 495L658 496L657 495M420 496L421 497L420 496M423 497L424 498L423 497M430 499L431 500L430 499M644 499L645 500L644 499M436 501L437 502L436 501M743 501L744 502L743 501M631 503L632 504L631 503M449 505L450 506L449 505z"/>
<path style="fill:#ffffff; opacity:0; stroke:none;" d="M457 508L456 515C481.209 520.779 508.173 535.706 534 536.96C544.825 537.485 554.752 533.655 565 530.709C582.709 525.619 600.273 520.03 618 515C614.362 503.779 590.511 516.166 582 518.72C568.344 522.817 552.401 530.799 538 530.821C511.056 530.862 483.239 513.43 457 508z"/>
<path style="fill:#730c73; stroke:none;" d="M459 508L460 509L459 508M338.667 509.333L339.333 509.667L338.667 509.333M453 511L454 512L453 511M816.667 511.333L817.333 511.667L816.667 511.333M472 512L473 513L472 512M617 513L618 514L617 513M345 516L346 517L345 516M485 516L486 517L485 516M612 516L613 517L612 516M465 517L466 518L465 517M488 517L489 518L488 517M586 517L587 518L586 517M595 521L596 522L595 521z"/>
<path style="fill:#bd69a3; stroke:none;" d="M712 669C727.131 668.553 742.044 661.21 756.039 656.241C792.033 643.461 826.522 625.048 856.729 601.506C877.114 585.619 894.364 567.121 918.17 556.006C944.9 543.526 976.129 542.317 1005 545.17C1015.49 546.206 1025.34 550.911 1036 551C1032.52 546.127 1026.35 545.129 1021.17 542.806C1008.1 536.942 994.82 532.821 981.089 528.911C948.448 519.617 908.973 518.437 877.286 532.17C862.266 538.679 849.671 549.362 835.831 557.911C823.898 565.281 805.702 570.92 795.728 580.46C782.96 592.673 774.615 610.979 762.497 624.246C752.718 634.952 741.444 645.283 729.845 653.975C724.543 657.949 714.125 662.59 712 669z"/>
<path style="fill:#730c73; stroke:none;" d="M452 523L453 524L452 523M585 524L586 525L585 524z"/>
<path style="fill:#bd69a3; stroke:none;" d="M42 555C56.5318 553.733 71.3256 547.856 86.0394 546.129C111.448 543.146 140.904 550.085 163.91 560.676C185.107 570.433 199.865 587.503 218.285 600.961C246.988 621.932 276.499 637.686 308.83 652.194C326.009 659.902 346.957 669.182 366 670C363.92 663.312 355.093 660.135 349.87 655.986C337.536 646.191 326.385 635.716 315.247 624.586C302.465 611.814 294.967 593.829 282.215 581.506C274.901 574.439 260.294 571.291 251.425 565.775C232.56 554.039 214.96 539.411 193.83 531.821C173.407 524.484 151.324 524.442 130 525.911C106.619 527.521 84.4717 534.308 62.9105 543.102C56.3856 545.763 44.7888 547.87 42 555z"/>
<path style="fill:#730c73; stroke:none;" d="M492 525L493 526L492 525M514 525L515 526L514 525M560 525L561 526L560 525M582 525L583 526L582 525M517 526L518 527L517 526M499 527L500 528L499 527M575 527L576 528L575 527M622 528L623 529L622 528M509 530L510 531L509 530M718.333 531.667L718.667 532.333L718.333 531.667M526 535L527 536L526 535M548 535L549 536L548 535M448 538L449 539L448 538M665.333 540.667L665.667 541.333L665.333 540.667M624 546L625 547L624 546M279 550L280 551L279 550M617 556L618 557L617 556M458 559L459 560L458 559M459 560L460 561L459 560M460 561L461 562L460 561M461 562L462 563L461 562M609 564L610 565L609 564M786 569L787 570L786 569M471 570L472 571L471 570M477 574L478 575L477 574M595 574L596 575L595 574M591 576L592 577L591 576M483 577L484 578L483 577M404 578L405 579L404 578M485 578L486 579L485 578M587 578L588 579L587 578M579 581L580 582L579 581M512 586L513 587L512 586M303.333 589.667L303.667 590.333L303.333 589.667M652.667 593.333L653.333 593.667L652.667 593.333z"/>
<path style="fill:#bd69a3; stroke:none;" d="M603 713L603 715C616.061 716.672 628.101 724.604 641.039 727.371C681.842 736.096 724.292 737.197 763.911 722.759C823.251 701.134 859.86 639.231 921.039 622.829C931.913 619.913 945.722 616.809 956.961 618.129C970.119 619.674 982.228 626.087 995 628C991.749 621.516 983.199 618.926 977.285 615.29C953.648 600.757 921.109 596.193 894.17 604.09C851.24 616.674 816.347 645.552 775.714 663.34C759.171 670.583 739.924 676.506 722 678.715C710.703 680.108 697.127 678.273 686.286 681.495C658.103 689.872 632.276 707.318 603 713M83 631C91.4579 629.658 99.6138 624.887 108.039 622.843C120.103 619.917 134.865 620.15 146.985 622.63C189.487 631.325 219.394 662.061 252.424 687.551C274.215 704.367 297.271 717.894 323.17 727.179C357.64 739.537 400.998 735.83 436 728.339C448.662 725.629 461.164 717.657 474 717C471.513 709.116 459.111 708.538 452.424 705.975C440.792 701.518 428.504 698.48 417.09 693.489C405.503 688.423 392.924 681.223 379.996 681.005C341.65 680.356 305.645 668.031 272.086 649.831C237.639 631.151 205.7 608.791 166 603.576C142.887 600.539 119.12 606.409 99.5748 618.779C94.5229 621.976 85.0117 625.125 83 631z"/>
<path style="fill:#730c73; stroke:none;" d="M316 606L317 607L316 606M606 620L607 621L606 620M587 627L588 628L587 627M521 651L522 652L521 651M710.667 651.333L711.333 651.667L710.667 651.333M371 655L372 656L371 655M563 655L564 656L563 655z"/>
<path style="fill:#63196d; stroke:none;" d="M538.245 656.851C534.256 658.226 529.945 667.026 527.484 670.425C519.319 681.701 511.39 693.164 503.197 704.424C500.247 708.478 494.966 713.503 495.607 718.996C496.617 727.64 508.434 738.316 513.376 745.285C519.788 754.327 525.747 763.688 532.369 772.573C534.031 774.803 537.175 780.301 540.626 779.009C544.698 777.483 547.783 770.458 550.33 767.13C558.929 755.895 567.032 743.906 574.922 732.166C577.522 728.297 583.541 722.93 583.429 718C583.234 709.397 569.662 695.532 564.505 688.92C558.171 680.8 552.394 672.22 546.599 663.715C544.8 661.076 542.36 655.433 538.245 656.851z"/>
<path style="fill:#730c73; stroke:none;" d="M511.333 657.667L511.667 658.333L511.333 657.667M532 662L532 664L534 664L534 662L532 662M677.667 670.333L678.333 670.667L677.667 670.333M558 680L559 681L558 680M493 681L493 683L495 683L495 681L493 681M564 689L565 690L564 689M616 694L617 695L616 694M584 695L585 696L584 695M570.667 698.333L571.333 698.667L570.667 698.333M598 699L599 700L598 699M583.333 715.667L583.667 716.333L583.333 715.667z"/>
<path style="fill:#010181; stroke:none;" d="M574 732L575 733L574 732z"/>
<path style="fill:#730c73; stroke:none;" d="M516.333 749.667L516.667 750.333L516.333 749.667M561 749L561 751L563 751L563 749L561 749M549 767L550 768L549 767M535 776L536 777L535 776z"/>
</svg>
